<svg width="24" height="24" viewBox="0 0 24 24" fill="none" xmlns="http://www.w3.org/2000/svg">
<path opacity="0.6" d="M9.51026 4.22989L18.0703 8.50989C21.9103 10.4299 21.9103 13.5699 18.0703 15.4899L9.51026 19.7699C3.75026 22.6499 1.40026 20.2899 4.28026 14.5399L5.15026 12.8099C5.40026 12.2999 5.40026 11.7099 5.15026 11.1999L4.28026 9.45989C1.40026 3.70989 3.76026 1.34989 9.51026 4.22989Z" fill="white"/>
<path d="M14.8404 12.75H9.44043C9.03043 12.75 8.69043 12.41 8.69043 12C8.69043 11.59 9.03043 11.25 9.44043 11.25H14.8404C15.2504 11.25 15.5904 11.59 15.5904 12C15.5904 12.41 15.2504 12.75 14.8404 12.75Z" fill="white"/>
</svg>
