<svg width="32" height="32" viewBox="0 0 32 32" fill="none" xmlns="http://www.w3.org/2000/svg">
<path d="M6.10022 6.10001C6.47528 5.72507 6.98389 5.51443 7.51422 5.51443C8.04455 5.51443 8.55317 5.72507 8.92822 6.10001L16.0002 13.172L23.0722 6.10001C23.4494 5.73569 23.9546 5.5341 24.479 5.53866C25.0034 5.54322 25.505 5.75355 25.8759 6.12437C26.2467 6.49519 26.457 6.99681 26.4616 7.52121C26.4661 8.0456 26.2645 8.5508 25.9002 8.92801L18.8282 16L25.9002 23.072C26.2645 23.4492 26.4661 23.9544 26.4616 24.4788C26.457 25.0032 26.2467 25.5048 25.8759 25.8756C25.505 26.2465 25.0034 26.4568 24.479 26.4614C23.9546 26.4659 23.4494 26.2643 23.0722 25.9L16.0002 18.828L8.92822 25.9C8.55102 26.2643 8.04581 26.4659 7.52142 26.4614C6.99703 26.4568 6.4954 26.2465 6.12458 25.8756C5.75377 25.5048 5.54343 25.0032 5.53887 24.4788C5.53432 23.9544 5.73591 23.4492 6.10022 23.072L13.1722 16L6.10022 8.92801C5.72528 8.55295 5.51465 8.04434 5.51465 7.51401C5.51465 6.98368 5.72528 6.47506 6.10022 6.10001V6.10001Z" fill="#8B94B5"/>
</svg>
