<svg width="32" height="32" viewBox="0 0 32 32" fill="none" xmlns="http://www.w3.org/2000/svg">
<path d="M28.4094 6.54063L26.6469 7.91875C24.2438 4.84687 20.5063 2.875 16.3094 2.875C9.06251 2.875 3.19689 8.73438 3.18751 15.9844C3.17814 23.2406 9.05626 29.125 16.3094 29.125C21.975 29.125 26.8031 25.5313 28.6406 20.4969C28.6875 20.3656 28.6188 20.2187 28.4875 20.175L26.7156 19.5656C26.6539 19.5444 26.5862 19.5483 26.5273 19.5763C26.4683 19.6044 26.4226 19.6544 26.4 19.7156C26.3438 19.8719 26.2813 20.0281 26.2156 20.1812C25.675 21.4625 24.9 22.6125 23.9125 23.6C22.933 24.5814 21.7732 25.3644 20.4969 25.9062C19.175 26.4656 17.7656 26.75 16.3156 26.75C14.8625 26.75 13.4563 26.4656 12.1344 25.9062C10.8568 25.3667 9.69664 24.5834 8.71876 23.6C7.73657 22.6206 6.95433 21.4594 6.41564 20.1812C5.85626 18.8562 5.57189 17.45 5.57189 15.9969C5.57189 14.5437 5.85626 13.1375 6.41564 11.8125C6.95626 10.5312 7.73126 9.38125 8.71876 8.39375C9.70626 7.40625 10.8563 6.63125 12.1344 6.0875C13.4563 5.52813 14.8656 5.24375 16.3156 5.24375C17.7688 5.24375 19.175 5.52813 20.4969 6.0875C21.7745 6.62702 22.9346 7.41037 23.9125 8.39375C24.2219 8.70313 24.5125 9.03125 24.7813 9.375L22.9 10.8438C22.8628 10.8725 22.8344 10.9113 22.8183 10.9554C22.8021 10.9996 22.7987 11.0475 22.8085 11.0935C22.8182 11.1395 22.8408 11.1819 22.8736 11.2156C22.9064 11.2494 22.948 11.2732 22.9938 11.2844L28.4813 12.6281C28.6375 12.6656 28.7906 12.5469 28.7906 12.3875L28.8156 6.73438C28.8125 6.52813 28.5719 6.4125 28.4094 6.54063V6.54063Z" fill="white"/>
</svg>
